<mxfile host="app.diagrams.net" agent="Mozilla/5.0 (X11; Linux x86_64; rv:134.0) Gecko/20100101 Firefox/134.0" version="26.0.10">
  <diagram name="Page-1" id="NHwyPLsdt4Yi8a2vpx8V">
    <mxGraphModel dx="767" dy="418" grid="1" gridSize="10" guides="1" tooltips="1" connect="1" arrows="1" fold="1" page="1" pageScale="1" pageWidth="850" pageHeight="1100" math="0" shadow="0">
      <root>
        <mxCell id="0" />
        <mxCell id="1" parent="0" />
        <mxCell id="g05ml1coIvOVpddrquhV-22" style="edgeStyle=orthogonalEdgeStyle;rounded=0;orthogonalLoop=1;jettySize=auto;html=1;entryX=0.5;entryY=0;entryDx=0;entryDy=0;" edge="1" parent="1" source="g05ml1coIvOVpddrquhV-8" target="g05ml1coIvOVpddrquhV-19">
          <mxGeometry relative="1" as="geometry" />
        </mxCell>
        <mxCell id="g05ml1coIvOVpddrquhV-24" style="edgeStyle=orthogonalEdgeStyle;rounded=0;orthogonalLoop=1;jettySize=auto;html=1;entryX=0.5;entryY=0;entryDx=0;entryDy=0;" edge="1" parent="1" source="g05ml1coIvOVpddrquhV-8" target="g05ml1coIvOVpddrquhV-10">
          <mxGeometry relative="1" as="geometry" />
        </mxCell>
        <mxCell id="g05ml1coIvOVpddrquhV-8" value="DevCamp HOME" style="rounded=0;whiteSpace=wrap;html=1;" vertex="1" parent="1">
          <mxGeometry x="360" y="30" width="120" height="60" as="geometry" />
        </mxCell>
        <mxCell id="g05ml1coIvOVpddrquhV-25" style="edgeStyle=orthogonalEdgeStyle;rounded=0;orthogonalLoop=1;jettySize=auto;html=1;entryX=0;entryY=0.5;entryDx=0;entryDy=0;" edge="1" parent="1" source="g05ml1coIvOVpddrquhV-9" target="g05ml1coIvOVpddrquhV-10">
          <mxGeometry relative="1" as="geometry">
            <mxPoint x="490" y="200" as="targetPoint" />
          </mxGeometry>
        </mxCell>
        <mxCell id="g05ml1coIvOVpddrquhV-9" value="SIGN UP" style="whiteSpace=wrap;html=1;aspect=fixed;" vertex="1" parent="1">
          <mxGeometry x="240" y="160" width="80" height="80" as="geometry" />
        </mxCell>
        <mxCell id="g05ml1coIvOVpddrquhV-16" style="edgeStyle=orthogonalEdgeStyle;rounded=0;orthogonalLoop=1;jettySize=auto;html=1;exitX=0.5;exitY=1;exitDx=0;exitDy=0;entryX=1;entryY=0.5;entryDx=0;entryDy=0;" edge="1" parent="1" source="g05ml1coIvOVpddrquhV-10" target="g05ml1coIvOVpddrquhV-11">
          <mxGeometry relative="1" as="geometry" />
        </mxCell>
        <mxCell id="g05ml1coIvOVpddrquhV-10" value="LOG IN" style="whiteSpace=wrap;html=1;aspect=fixed;" vertex="1" parent="1">
          <mxGeometry x="500" y="160" width="80" height="80" as="geometry" />
        </mxCell>
        <mxCell id="g05ml1coIvOVpddrquhV-14" style="edgeStyle=orthogonalEdgeStyle;rounded=0;orthogonalLoop=1;jettySize=auto;html=1;exitX=0;exitY=0.5;exitDx=0;exitDy=0;entryX=0.5;entryY=1;entryDx=0;entryDy=0;" edge="1" parent="1" source="g05ml1coIvOVpddrquhV-11" target="g05ml1coIvOVpddrquhV-9">
          <mxGeometry relative="1" as="geometry" />
        </mxCell>
        <mxCell id="g05ml1coIvOVpddrquhV-15" style="edgeStyle=orthogonalEdgeStyle;rounded=0;orthogonalLoop=1;jettySize=auto;html=1;exitX=0.5;exitY=1;exitDx=0;exitDy=0;entryX=0.5;entryY=0;entryDx=0;entryDy=0;" edge="1" parent="1" source="g05ml1coIvOVpddrquhV-11" target="g05ml1coIvOVpddrquhV-13">
          <mxGeometry relative="1" as="geometry" />
        </mxCell>
        <mxCell id="g05ml1coIvOVpddrquhV-11" value="&lt;div&gt;Login Credentials&lt;/div&gt;" style="rhombus;whiteSpace=wrap;html=1;" vertex="1" parent="1">
          <mxGeometry x="345" y="240" width="150" height="80" as="geometry" />
        </mxCell>
        <mxCell id="g05ml1coIvOVpddrquhV-32" style="edgeStyle=orthogonalEdgeStyle;rounded=0;orthogonalLoop=1;jettySize=auto;html=1;entryX=0.5;entryY=0;entryDx=0;entryDy=0;" edge="1" parent="1" source="g05ml1coIvOVpddrquhV-13" target="g05ml1coIvOVpddrquhV-18">
          <mxGeometry relative="1" as="geometry" />
        </mxCell>
        <mxCell id="g05ml1coIvOVpddrquhV-13" value="DevCamp &lt;br&gt;Student Panel" style="rounded=0;whiteSpace=wrap;html=1;" vertex="1" parent="1">
          <mxGeometry x="360" y="360" width="120" height="60" as="geometry" />
        </mxCell>
        <mxCell id="g05ml1coIvOVpddrquhV-27" style="edgeStyle=orthogonalEdgeStyle;rounded=0;orthogonalLoop=1;jettySize=auto;html=1;" edge="1" parent="1" source="g05ml1coIvOVpddrquhV-17" target="g05ml1coIvOVpddrquhV-26">
          <mxGeometry relative="1" as="geometry" />
        </mxCell>
        <mxCell id="g05ml1coIvOVpddrquhV-126" style="edgeStyle=orthogonalEdgeStyle;rounded=0;orthogonalLoop=1;jettySize=auto;html=1;entryX=0;entryY=0.5;entryDx=0;entryDy=0;" edge="1" parent="1" source="g05ml1coIvOVpddrquhV-17" target="g05ml1coIvOVpddrquhV-18">
          <mxGeometry relative="1" as="geometry" />
        </mxCell>
        <mxCell id="g05ml1coIvOVpddrquhV-17" value="COURSE MENU" style="rounded=1;whiteSpace=wrap;html=1;" vertex="1" parent="1">
          <mxGeometry x="30" y="470" width="120" height="50" as="geometry" />
        </mxCell>
        <mxCell id="g05ml1coIvOVpddrquhV-44" style="edgeStyle=orthogonalEdgeStyle;rounded=0;orthogonalLoop=1;jettySize=auto;html=1;entryX=0.5;entryY=0;entryDx=0;entryDy=0;" edge="1" parent="1" source="g05ml1coIvOVpddrquhV-18" target="g05ml1coIvOVpddrquhV-38">
          <mxGeometry relative="1" as="geometry" />
        </mxCell>
        <mxCell id="g05ml1coIvOVpddrquhV-18" value="SUPPORT" style="rounded=0;whiteSpace=wrap;html=1;" vertex="1" parent="1">
          <mxGeometry x="360" y="465" width="120" height="60" as="geometry" />
        </mxCell>
        <mxCell id="g05ml1coIvOVpddrquhV-20" style="edgeStyle=orthogonalEdgeStyle;rounded=0;orthogonalLoop=1;jettySize=auto;html=1;entryX=0.5;entryY=0;entryDx=0;entryDy=0;" edge="1" parent="1" source="g05ml1coIvOVpddrquhV-19" target="g05ml1coIvOVpddrquhV-9">
          <mxGeometry relative="1" as="geometry">
            <mxPoint x="170" y="130" as="targetPoint" />
          </mxGeometry>
        </mxCell>
        <mxCell id="g05ml1coIvOVpddrquhV-19" value="Info about bootcamps" style="rounded=0;whiteSpace=wrap;html=1;" vertex="1" parent="1">
          <mxGeometry x="380" y="110" width="80" height="60" as="geometry" />
        </mxCell>
        <mxCell id="g05ml1coIvOVpddrquhV-41" style="edgeStyle=orthogonalEdgeStyle;rounded=0;orthogonalLoop=1;jettySize=auto;html=1;" edge="1" parent="1" source="g05ml1coIvOVpddrquhV-26" target="g05ml1coIvOVpddrquhV-47">
          <mxGeometry relative="1" as="geometry">
            <mxPoint x="190" y="600" as="targetPoint" />
          </mxGeometry>
        </mxCell>
        <mxCell id="g05ml1coIvOVpddrquhV-26" value="Inside each guide." style="rounded=0;whiteSpace=wrap;html=1;" vertex="1" parent="1">
          <mxGeometry x="30" y="570" width="120" height="60" as="geometry" />
        </mxCell>
        <mxCell id="g05ml1coIvOVpddrquhV-31" style="edgeStyle=orthogonalEdgeStyle;rounded=0;orthogonalLoop=1;jettySize=auto;html=1;entryX=0.456;entryY=0.011;entryDx=0;entryDy=0;entryPerimeter=0;" edge="1" parent="1" source="g05ml1coIvOVpddrquhV-13" target="g05ml1coIvOVpddrquhV-17">
          <mxGeometry relative="1" as="geometry" />
        </mxCell>
        <mxCell id="g05ml1coIvOVpddrquhV-33" value="&lt;font style=&quot;font-size: 29px;&quot;&gt;DevCamp &lt;br&gt;Knowledge database&lt;/font&gt;" style="ellipse;shape=cloud;whiteSpace=wrap;html=1;fillColor=#dae8fc;strokeColor=#6c8ebf;" vertex="1" parent="1">
          <mxGeometry x="515" y="360" width="270" height="220" as="geometry" />
        </mxCell>
        <mxCell id="g05ml1coIvOVpddrquhV-46" style="edgeStyle=orthogonalEdgeStyle;rounded=0;orthogonalLoop=1;jettySize=auto;html=1;entryX=0.5;entryY=0;entryDx=0;entryDy=0;" edge="1" parent="1" source="g05ml1coIvOVpddrquhV-38">
          <mxGeometry relative="1" as="geometry">
            <mxPoint x="420" y="680" as="targetPoint" />
          </mxGeometry>
        </mxCell>
        <mxCell id="g05ml1coIvOVpddrquhV-38" value="&lt;div&gt;What guide is being&lt;/div&gt;&lt;div&gt;asked for?&lt;br&gt;&lt;/div&gt;" style="rhombus;whiteSpace=wrap;html=1;fillColor=#fff2cc;strokeColor=#d6b656;" vertex="1" parent="1">
          <mxGeometry x="350" y="560" width="140" height="80" as="geometry" />
        </mxCell>
        <mxCell id="g05ml1coIvOVpddrquhV-65" style="edgeStyle=orthogonalEdgeStyle;rounded=0;orthogonalLoop=1;jettySize=auto;html=1;entryX=0;entryY=0.5;entryDx=0;entryDy=0;" edge="1" parent="1" source="g05ml1coIvOVpddrquhV-47" target="g05ml1coIvOVpddrquhV-48">
          <mxGeometry relative="1" as="geometry" />
        </mxCell>
        <mxCell id="g05ml1coIvOVpddrquhV-47" value="SUPPORT&lt;br&gt;&lt;div&gt;BUTTON&lt;/div&gt;&lt;div&gt;included.&lt;br&gt;&lt;/div&gt;" style="shape=step;perimeter=stepPerimeter;whiteSpace=wrap;html=1;fixedSize=1;fillColor=#d5e8d4;strokeColor=#82b366;" vertex="1" parent="1">
          <mxGeometry x="30" y="660" width="120" height="80" as="geometry" />
        </mxCell>
        <mxCell id="g05ml1coIvOVpddrquhV-70" style="edgeStyle=orthogonalEdgeStyle;rounded=0;orthogonalLoop=1;jettySize=auto;html=1;entryX=0.5;entryY=0;entryDx=0;entryDy=0;" edge="1" parent="1" source="g05ml1coIvOVpddrquhV-48" target="g05ml1coIvOVpddrquhV-69">
          <mxGeometry relative="1" as="geometry" />
        </mxCell>
        <mxCell id="g05ml1coIvOVpddrquhV-48" value="Describing the issue." style="rhombus;whiteSpace=wrap;html=1;" vertex="1" parent="1">
          <mxGeometry x="330" y="660" width="180" height="80" as="geometry" />
        </mxCell>
        <mxCell id="g05ml1coIvOVpddrquhV-66" value="" style="shape=flexArrow;endArrow=classic;startArrow=classic;html=1;rounded=0;fillColor=#d5e8d4;strokeColor=#82b366;entryX=0.171;entryY=0.818;entryDx=0;entryDy=0;entryPerimeter=0;" edge="1" parent="1" target="g05ml1coIvOVpddrquhV-33">
          <mxGeometry width="100" height="100" relative="1" as="geometry">
            <mxPoint x="520" y="700" as="sourcePoint" />
            <mxPoint x="600" y="530" as="targetPoint" />
          </mxGeometry>
        </mxCell>
        <mxCell id="g05ml1coIvOVpddrquhV-69" value="Expanding the query.&lt;br&gt;Markdown text base &lt;br&gt;available" style="rhombus;whiteSpace=wrap;html=1;" vertex="1" parent="1">
          <mxGeometry x="325" y="770" width="190" height="80" as="geometry" />
        </mxCell>
        <mxCell id="g05ml1coIvOVpddrquhV-92" style="edgeStyle=orthogonalEdgeStyle;rounded=0;orthogonalLoop=1;jettySize=auto;html=1;" edge="1" parent="1" source="g05ml1coIvOVpddrquhV-74" target="g05ml1coIvOVpddrquhV-69">
          <mxGeometry relative="1" as="geometry" />
        </mxCell>
        <mxCell id="g05ml1coIvOVpddrquhV-74" value="NO" style="rounded=1;whiteSpace=wrap;html=1;fillColor=#f8cecc;strokeColor=#b85450;" vertex="1" parent="1">
          <mxGeometry x="550" y="795" width="30" height="30" as="geometry" />
        </mxCell>
        <mxCell id="g05ml1coIvOVpddrquhV-118" style="edgeStyle=orthogonalEdgeStyle;rounded=0;orthogonalLoop=1;jettySize=auto;html=1;entryX=0.5;entryY=0;entryDx=0;entryDy=0;" edge="1" parent="1" source="g05ml1coIvOVpddrquhV-76">
          <mxGeometry relative="1" as="geometry">
            <mxPoint x="635" y="930" as="targetPoint" />
          </mxGeometry>
        </mxCell>
        <mxCell id="g05ml1coIvOVpddrquhV-76" value="YES" style="rounded=1;whiteSpace=wrap;html=1;fillColor=#d5e8d4;strokeColor=#82b366;" vertex="1" parent="1">
          <mxGeometry x="620" y="870" width="30" height="30" as="geometry" />
        </mxCell>
        <mxCell id="g05ml1coIvOVpddrquhV-85" value="A mentor reviews the issue.&lt;br&gt;Conversation is being started." style="ellipse;whiteSpace=wrap;html=1;" vertex="1" parent="1">
          <mxGeometry x="340" y="880" width="160" height="80" as="geometry" />
        </mxCell>
        <mxCell id="g05ml1coIvOVpddrquhV-88" style="edgeStyle=orthogonalEdgeStyle;rounded=0;orthogonalLoop=1;jettySize=auto;html=1;entryX=0.499;entryY=-0.025;entryDx=0;entryDy=0;entryPerimeter=0;" edge="1" parent="1" source="g05ml1coIvOVpddrquhV-69" target="g05ml1coIvOVpddrquhV-85">
          <mxGeometry relative="1" as="geometry" />
        </mxCell>
        <mxCell id="g05ml1coIvOVpddrquhV-97" value="Does the previous issue solve the actual?" style="shape=xor;whiteSpace=wrap;html=1;direction=south;" vertex="1" parent="1">
          <mxGeometry x="580" y="660" width="152.5" height="80" as="geometry" />
        </mxCell>
        <mxCell id="g05ml1coIvOVpddrquhV-109" value="" style="curved=1;endArrow=classic;html=1;rounded=0;entryX=0.5;entryY=0;entryDx=0;entryDy=0;exitX=0.986;exitY=0.52;exitDx=0;exitDy=0;exitPerimeter=0;" edge="1" parent="1" source="g05ml1coIvOVpddrquhV-97" target="g05ml1coIvOVpddrquhV-76">
          <mxGeometry width="50" height="50" relative="1" as="geometry">
            <mxPoint x="560" y="830" as="sourcePoint" />
            <mxPoint x="610" y="780" as="targetPoint" />
            <Array as="points">
              <mxPoint x="669" y="790" />
            </Array>
          </mxGeometry>
        </mxCell>
        <mxCell id="g05ml1coIvOVpddrquhV-111" value="" style="curved=1;endArrow=classic;html=1;rounded=0;exitX=1;exitY=0.5;exitDx=0;exitDy=0;exitPerimeter=0;entryX=1.108;entryY=0.507;entryDx=0;entryDy=0;entryPerimeter=0;" edge="1" parent="1" source="g05ml1coIvOVpddrquhV-97" target="g05ml1coIvOVpddrquhV-74">
          <mxGeometry width="50" height="50" relative="1" as="geometry">
            <mxPoint x="530" y="760" as="sourcePoint" />
            <mxPoint x="630" y="820" as="targetPoint" />
            <Array as="points">
              <mxPoint x="640" y="770" />
              <mxPoint x="610" y="790" />
            </Array>
          </mxGeometry>
        </mxCell>
        <mxCell id="g05ml1coIvOVpddrquhV-117" value="&lt;div&gt;Issue solved, and the&lt;br&gt;&lt;/div&gt;&lt;div&gt;Knowledge Base has been incremented.&lt;br&gt;&lt;/div&gt;" style="shape=process;whiteSpace=wrap;html=1;backgroundOutline=1;fillColor=#d5e8d4;strokeColor=#82b366;" vertex="1" parent="1">
          <mxGeometry x="330" y="1020" width="180" height="70" as="geometry" />
        </mxCell>
        <mxCell id="g05ml1coIvOVpddrquhV-121" value="Issue may be solved, &lt;br&gt;With no more added value to the platform." style="ellipse;whiteSpace=wrap;html=1;fillColor=#f8cecc;strokeColor=#b85450;" vertex="1" parent="1">
          <mxGeometry x="562.5" y="930" width="145" height="80" as="geometry" />
        </mxCell>
        <mxCell id="g05ml1coIvOVpddrquhV-124" value="" style="endArrow=classic;html=1;rounded=0;entryX=0.5;entryY=0;entryDx=0;entryDy=0;exitX=0.5;exitY=1;exitDx=0;exitDy=0;" edge="1" parent="1" source="g05ml1coIvOVpddrquhV-85" target="g05ml1coIvOVpddrquhV-117">
          <mxGeometry width="50" height="50" relative="1" as="geometry">
            <mxPoint x="510" y="980" as="sourcePoint" />
            <mxPoint x="560" y="930" as="targetPoint" />
          </mxGeometry>
        </mxCell>
        <mxCell id="g05ml1coIvOVpddrquhV-127" value="" style="shape=flexArrow;endArrow=classic;html=1;rounded=0;exitX=1;exitY=0.5;exitDx=0;exitDy=0;fillColor=#d5e8d4;strokeColor=#82b366;" edge="1" parent="1" source="g05ml1coIvOVpddrquhV-117" target="g05ml1coIvOVpddrquhV-33">
          <mxGeometry width="50" height="50" relative="1" as="geometry">
            <mxPoint x="550" y="1090" as="sourcePoint" />
            <mxPoint x="780" y="540" as="targetPoint" />
            <Array as="points">
              <mxPoint x="780" y="1055" />
              <mxPoint x="780" y="660" />
            </Array>
          </mxGeometry>
        </mxCell>
        <mxCell id="g05ml1coIvOVpddrquhV-131" style="edgeStyle=orthogonalEdgeStyle;rounded=0;orthogonalLoop=1;jettySize=auto;html=1;entryX=0.262;entryY=0.54;entryDx=0;entryDy=0;entryPerimeter=0;" edge="1" parent="1" source="g05ml1coIvOVpddrquhV-33" target="g05ml1coIvOVpddrquhV-97">
          <mxGeometry relative="1" as="geometry" />
        </mxCell>
      </root>
    </mxGraphModel>
  </diagram>
</mxfile>
